# xmcd
#
# Track frame offsets:
#	150
#	18101
#	38813
#	52956
#	70313
#	95119
#	113922
#	130453
#	144723
#	160571
#
# Disc length: 2357 seconds
#
# Revision: 0
# Processed by: cddbd v1.5.2PL0 Copyright (c) Steve Scherf et al.
# Submitted via: dBpowerAMP V4.0
#
DISCID=8609330a
DTITLE=Marinela Parvu - Vis pentru romanii mei
DYEAR=2008
DGENRE=Populara
TTITLE0=Ce au mandruto ai tai cu mine
TTITLE1=Pe drumul cu piatra rara
TTITLE2=Mandra mea fata frumoasa
TTITLE3=Maicuta mea
TTITLE4=Hai Marine iesi la joc
TTITLE5=Jocurile oltenesti
TTITLE6=Ce ti-am facut eu Gheorghita
TTITLE7=Cucu si mierla
TTITLE8=Doi batrani
TTITLE9=Lie ciocarlie
EXTD=
EXTT0=
EXTT1=
EXTT2=
EXTT3=
EXTT4=
EXTT5=
EXTT6=
EXTT7=
EXTT8=
EXTT9=
PLAYORDER=
